<svg xmlns="http://www.w3.org/2000/svg" width="46" height="43">
    <path fill="#12C2E9" fill-rule="evenodd" d="M44.082 11.156h-1.197v4.008c0 .413-.336.75-.75.75h-2.05c-.415 0-.751-.336-.751-.75v-4.008h-2.92l-.819 7.747c-.194 1.833-2.468 2.5-3.645 1.153l-2.993-3.425v8.025l7.644 3.106c.886.359 1.516 1.158 1.66 2.103l1.514 9.918c.225 1.48-.792 2.863-2.272 3.089-1.481.226-2.864-.791-3.09-2.271l-1.281-8.395-7.016-2.851h-6.228l-7.016 2.851-1.281 8.395c-.226 1.48-1.609 2.497-3.09 2.271-1.48-.226-2.497-1.609-2.271-3.089l1.513-9.918c.144-.945.774-1.744 1.66-2.103l7.584-3.081v-7.979l-2.931 3.354c-1.21 1.384-3.456.63-3.645-1.153l-.819-7.747H6.666v4.008c0 .414-.336.75-.751.75h-2.05c-.414 0-.75-.336-.75-.75v-4.008H1.918c-.785 0-1.42-.635-1.42-1.42 0-.784.635-1.42 1.42-1.419h1.197V4.309c0-.414.336-.75.75-.75h2.05c.415 0 .751.336.751.75v4.008h2.627c-.11-1.15.737-2.153 1.856-2.272 1.141-.12 2.172.712 2.293 1.854l.044.417h3.598c1.05 2.267 3.33 3.785 5.913 3.785 2.547 0 4.846-1.485 5.912-3.785h3.611l.045-.417c.119-1.134 1.141-1.975 2.293-1.854 1.12.119 1.965 1.123 1.856 2.271h2.62V4.309c0-.414.336-.75.75-.75h2.051c.414 0 .75.336.75.75v4.007h1.197c.784 0 1.42.636 1.42 1.42 0 .785-.636 1.42-1.42 1.42zm-30.296 0l.271 2.56 2.237-2.56h-2.508zm15.926 0l2.237 2.56.271-2.56h-2.508zm-6.715-.884c-2.587 0-4.684-2.097-4.684-4.683S20.41.906 22.997.906c2.586 0 4.683 2.097 4.683 4.683s-2.097 4.683-4.683 4.683z"/>
</svg>
