<svg xmlns="http://www.w3.org/2000/svg" width="32" height="42">
    <path fill="#12C2E9" fill-rule="evenodd" d="M31.648 10.973l-1.502 1.351c.333.317.515.781.448 1.27-.113.81-.865 1.373-1.676 1.261l-1.059-.144c-1.804 2.247-3.06 4.882-3.665 7.704-.393-1.626-.546-3.294-.461-4.954.511-1.071 1.115-2.098 1.806-3.068l-.529-.073c.255-.734.206-1.54-.13-2.238l.269-.724 2.655.363c.487-.484.626-.598 2.491-2.276.46-.413 1.195-.335 1.549.204.277.422.18.986-.196 1.324zm-7.604.07c-.537-.423-1.221-.661-1.947-.636l.518-1.392c.196-.527.785-.797 1.315-.601.531.194.802.78.606 1.306l-.492 1.323zm-2.011.848c.872-.097 1.651.574 1.652 1.471.002.758-.601 1.384-1.359 1.468l-5.863.654c-.503.056-.99-.145-1.305-.518l-3.611-4.275 2.257 4.768-.708 1.699 2.831.524c.916.171 1.546 1.012 1.446 1.933l-.982 9.012c-.099.909-.872 1.582-1.771 1.582-1.061 0-1.89-.913-1.775-1.963l.803-7.38c-6.728-1.247-6.387-1.149-6.738-1.341-1.048-.396-1.495-1.673-1.046-2.847l3.292-8.612c.453-1.182 1.688-1.814 2.7-1.369 3.321 1.459 8.826 3.858 8.826 3.858l-3.743.418-3.115-2.18 3.099 3.667 5.11-.569zm-7.392-5.748c-1.451-.75-2.127-2.486-1.561-4.011.686-1.849 2.839-2.676 4.6-1.767 1.451.75 2.127 2.486 1.561 4.011-.687 1.849-2.839 2.676-4.6 1.767zM7.099 25.167l-.42-4.194c.335.12.239.087 3.528.697l.351 3.51c.023.232-.002.466-.073.688l-1.027 3.205 2.081.275c.207.688.647 1.291 1.239 1.704-.885-.043-1.326.55-1.353 1.117-.032.651.473 1.204 1.129 1.236l4.186.2c.686.035 1.279-.526 1.244-1.241-.03-.611-.546-1.089-1.161-1.118l-.633-.03c.5-.28.875-.651 1.157-1.102l3.792.501.313-2.869 1.209 3.07 1.299.171-2.018-5.124c-1.181-3-1.629-6.2-1.344-9.354 2.1-.234 1.977-.219 2.082-.236-.337 2.977.053 6.013 1.17 8.848l2.544 6.462c.59.347 1.079.846 1.413 1.442.308.551.484 1.185.484 1.86 0 1.787-1.231 3.289-2.897 3.714l1.983 2.001c.317.32.313.835-.009 1.15-.322.316-.841.312-1.159-.009l-2.856-2.881S7.425 41.306 6.461 41.306c-1.08 0-2.098-.265-2.994-.73l-1.178 1.17c-.348.346-.932.315-1.238-.092-.246-.327-.192-.789.098-1.077l.955-.949C.81 38.453-.003 36.763-.003 34.885c0-3.406 2.668-6.19 6.041-6.407l1.061-3.311zm-4.496 9.518c-.116 2.277 1.767 4.148 4.059 4.032 1.963-.099 3.558-1.683 3.657-3.633.116-2.277-1.767-4.148-4.059-4.032-1.963.099-3.557 1.683-3.657 3.633z"/>
</svg>
