<svg xmlns="http://www.w3.org/2000/svg" width="48" height="43">
    <path fill="#12C2E9" fill-rule="evenodd" d="M30.915 42.49H.252v-2.858c.557.443 1.27.712 2.037.712h26.509l2.117 2.146zM13.521.509c-1.644 0-2.979 1.335-2.979 2.978 0 1.021.513 1.923 1.3 2.461.339-.937.887-1.798 1.614-2.525.728-.727 1.589-1.275 2.526-1.614-.538-.787-1.44-1.3-2.461-1.3zm-.852 7.805c0 3.137 2.546 5.677 5.679 5.677 3.133 0 5.678-2.545 5.678-5.677 0-3.138-2.545-5.679-5.678-5.679-.668 0-1.305.115-1.898.324-1.609.573-2.889 1.848-3.457 3.457-.209.598-.324 1.235-.324 1.898zm-3.083 7.834C8.256 19.096 5.357 26.632 4.56 28.53h9.893c.219-.538.463-1.061.732-1.554.931-1.739 3.84-2.6 3.148-5.026-.005-.02-.015-.039-.02-.064l2.605 2.47c.194.184.428.333.677.428l7.123 2.72c.239.089.488.134.732.134.827 0 1.604-.503 1.913-1.32.404-1.055-.124-2.241-1.185-2.644l-6.296-2.406c-.294-.115-.563-.284-.792-.498l-5.549-5.265c-.234-.224-.538-.368-.857-.472-.075-.026-.154-.051-.234-.07-.085-.025-.174-.05-.264-.07-1.385-.369-2.924-.683-4.349-.558-.468.04-.981.159-1.379.433-.458.329-.648.887-.872 1.38zm-7.297 22.95h27.027l2.59 2.625c.244.249.538.444.852.573.309.125.637.194.976.194h11.038c1.435 0 2.59-1.175 2.57-2.61-.024-1.409-1.2-2.525-2.61-2.525H34.81l-6.744-6.843c-.523-.533-.832-.752-1.768-.752-1.614 0-24.009.015-24.009.015-1.126 0-2.037.911-2.037 2.037V37.061c0 1.126.911 2.037 2.037 2.037zm41.347-9.393c0-3.252-2.639-5.892-5.892-5.892-3.253 0-5.893 2.64-5.893 5.892 0 3.252 2.64 5.892 5.893 5.892 3.253 0 5.892-2.635 5.892-5.892z"/>
</svg>
