<svg xmlns="http://www.w3.org/2000/svg" width="48" height="43"><path fill="#12C2E9" fill-rule="evenodd" d="M30.915 42.49H.252v-2.858c.557.443 1.27.712 2.037.712h26.509l2.117 2.146zM13.521.509a2.98 2.98 0 00-1.679 5.439 6.885 6.885 0 011.614-2.525 6.897 6.897 0 012.526-1.614 2.974 2.974 0 00-2.461-1.3zm-.852 7.805a5.68 5.68 0 0011.357 0 5.68 5.68 0 00-11.357 0zm-3.083 7.834C8.256 19.096 5.357 26.632 4.56 28.53h9.893c.219-.538.463-1.061.732-1.554.931-1.739 3.84-2.6 3.148-5.026-.005-.02-.015-.039-.02-.064l2.605 2.47c.194.184.428.333.677.428l7.123 2.72a2.044 2.044 0 002.645-1.186 2.046 2.046 0 00-1.185-2.644l-6.296-2.406a2.486 2.486 0 01-.792-.498l-5.549-5.265c-.234-.224-.538-.368-.857-.472a2.444 2.444 0 00-.234-.07 4.067 4.067 0 00-.264-.07c-1.385-.369-2.924-.683-4.349-.558-.468.04-.981.159-1.379.433-.458.329-.648.887-.872 1.38zm-7.297 22.95h27.027l2.59 2.625a2.56 2.56 0 001.828.767h11.038a2.572 2.572 0 002.57-2.61c-.024-1.409-1.2-2.525-2.61-2.525H34.81l-6.744-6.843c-.523-.533-.832-.752-1.768-.752-1.614 0-24.009.015-24.009.015a2.036 2.036 0 00-2.037 2.037v5.249c0 1.126.911 2.037 2.037 2.037zm41.347-9.393a5.894 5.894 0 00-5.892-5.892 5.895 5.895 0 00-5.893 5.892 5.895 5.895 0 005.893 5.892 5.89 5.89 0 005.892-5.892z"/></svg>