<svg xmlns="http://www.w3.org/2000/svg" width="46" height="43"><path fill="#12C2E9" fill-rule="evenodd" d="M44.082 11.156h-1.197v4.008a.75.75 0 01-.75.75h-2.05a.75.75 0 01-.751-.75v-4.008h-2.92l-.819 7.747c-.194 1.833-2.468 2.5-3.645 1.153l-2.993-3.425v8.025l7.644 3.106a2.708 2.708 0 011.66 2.103l1.514 9.918a2.713 2.713 0 01-5.362.818l-1.281-8.395-7.016-2.851h-6.228l-7.016 2.851-1.281 8.395a2.712 2.712 0 01-5.361-.818l1.513-9.918a2.708 2.708 0 011.66-2.103l7.584-3.081v-7.979l-2.931 3.354c-1.21 1.384-3.456.63-3.645-1.153l-.819-7.747H6.666v4.008a.75.75 0 01-.751.75h-2.05a.75.75 0 01-.75-.75v-4.008H1.918a1.419 1.419 0 110-2.839h1.197V4.309a.75.75 0 01.75-.75h2.05a.75.75 0 01.751.75v4.008h2.627a2.09 2.09 0 011.856-2.272 2.09 2.09 0 012.293 1.854l.044.417h3.598a6.518 6.518 0 005.913 3.785 6.518 6.518 0 005.912-3.785h3.611l.045-.417a2.088 2.088 0 012.293-1.854 2.09 2.09 0 011.856 2.271h2.62V4.309a.75.75 0 01.75-.75h2.051a.75.75 0 01.75.75v4.007h1.197a1.42 1.42 0 010 2.84zm-30.296 0l.271 2.56 2.237-2.56h-2.508zm15.926 0l2.237 2.56.271-2.56h-2.508zm-6.715-.884a4.684 4.684 0 110-9.367 4.684 4.684 0 010 9.367z"/></svg>